<?xml version="1.0" standalone="no"?>
<!DOCTYPE svg PUBLIC "-//W3C//DTD SVG 20010904//EN"
 "http://www.w3.org/TR/2001/REC-SVG-20010904/DTD/svg10.dtd">
<svg version="1.0" xmlns="http://www.w3.org/2000/svg"
 width="89.000000pt" height="89.000000pt" viewBox="0 0 89.000000 89.000000"
 preserveAspectRatio="xMidYMid meet">
<metadata>
Created by potrace 1.14, written by Peter Selinger 2001-2017
</metadata>
<g transform="translate(0.000000,89.000000) scale(0.100000,-0.100000)"
fill="#000000" stroke="none">
<path d="M480 665 l0 -184 83 -3 c45 -2 128 -2 185 0 l102 3 0 185 0 184 -185
0 -185 0 0 -185z"/>
<path d="M610 432 l-130 -3 0 -37 c-1 -58 -1 -274 -1 -304 l1 -28 185 0 185 0
0 184 0 184 -55 4 c-31 1 -114 2 -185 0z"/>
<path d="M60 245 l0 -185 185 0 185 0 0 185 0 185 -185 0 -185 0 0 -185z"/>
</g>
</svg>
